<svg xmlns="http://www.w3.org/2000/svg" xmlns:xlink="http://www.w3.org/1999/xlink" width="1366" zoomAndPan="magnify" viewBox="0 0 1024.5 576" height="768" preserveAspectRatio="xMidYMid meet" version="1.0"><defs><g/><clipPath id="99ad14c306"><path d="M 0 119.195312 L 1024 119.195312 L 1024 456.804688 L 0 456.804688 Z M 0 119.195312 " clip-rule="nonzero"/></clipPath><clipPath id="a6300da3a3"><path d="M 8.996094 119.195312 L 1015.003906 119.195312 C 1017.390625 119.195312 1019.679688 120.144531 1021.367188 121.832031 C 1023.050781 123.515625 1024 125.804688 1024 128.191406 L 1024 447.808594 C 1024 450.195312 1023.050781 452.484375 1021.367188 454.171875 C 1019.679688 455.855469 1017.390625 456.804688 1015.003906 456.804688 L 8.996094 456.804688 C 6.609375 456.804688 4.320312 455.855469 2.632812 454.171875 C 0.949219 452.484375 0 450.195312 0 447.808594 L 0 128.191406 C 0 125.804688 0.949219 123.515625 2.632812 121.832031 C 4.320312 120.144531 6.609375 119.195312 8.996094 119.195312 Z M 8.996094 119.195312 " clip-rule="nonzero"/></clipPath><clipPath id="22e1aae490"><path d="M 142 191.113281 L 329 191.113281 L 329 359 L 142 359 Z M 142 191.113281 " clip-rule="nonzero"/></clipPath></defs><g clip-path="url(#99ad14c306)"><g clip-path="url(#a6300da3a3)"><path fill="#45533a" d="M 0 119.195312 L 1023.378906 119.195312 L 1023.378906 456.804688 L 0 456.804688 Z M 0 119.195312 " fill-opacity="1" fill-rule="nonzero"/></g></g><g clip-path="url(#22e1aae490)"><path fill="#fcfcfc" d="M 142.734375 321.609375 C 140.492188 286.660156 152.882812 259.183594 167.441406 243.203125 C 182 227.226562 201.617188 219.601562 230.78125 214.328125 C 259.945312 209.050781 301.570312 218.554688 327.945312 191.402344 C 332.117188 360.234375 209.453125 384.503906 149.386719 336.703125 C 170.320312 311.496094 193.753906 293.597656 225.828125 281.898438 C 248.855469 273.496094 269.691406 269.316406 291.109375 244.609375 C 259.769531 265.910156 234.546875 267.472656 215.90625 273.351562 C 188.214844 282.085938 166.328125 293.820312 142.734375 321.609375 Z M 142.734375 321.609375 " fill-opacity="1" fill-rule="evenodd"/></g><g fill="#aabeb4" fill-opacity="1"><g transform="translate(347.554007, 322.340675)"><g><path d="M -0.21875 -87.90625 L 17.359375 -90 L 17.578125 -90 L 20.109375 -88.359375 L 20.109375 -55.28125 C 22.304688 -57.40625 24.925781 -59.160156 27.96875 -60.546875 C 31.007812 -61.941406 34.394531 -62.640625 38.125 -62.640625 C 42.519531 -62.640625 46.53125 -61.578125 50.15625 -59.453125 C 53.789062 -57.328125 56.6875 -54.03125 58.84375 -49.5625 C 61.007812 -45.09375 62.09375 -39.453125 62.09375 -32.640625 C 62.09375 -26.335938 60.789062 -20.617188 58.1875 -15.484375 C 55.582031 -10.359375 51.863281 -6.296875 47.03125 -3.296875 C 42.195312 -0.296875 36.59375 1.203125 30.21875 1.203125 C 25.164062 1.203125 20.550781 0.707031 16.375 -0.28125 C 12.195312 -1.269531 9.671875 -2.164062 8.796875 -2.96875 L 8.796875 -82.09375 L -0.21875 -83.296875 Z M 33.625 -54.828125 C 30.84375 -54.828125 28.257812 -54.1875 25.875 -52.90625 C 23.5 -51.625 21.578125 -50.179688 20.109375 -48.578125 L 20.109375 -8.125 C 20.546875 -7.101562 21.804688 -6.28125 23.890625 -5.65625 C 25.984375 -5.03125 28.347656 -4.71875 30.984375 -4.71875 C 36.628906 -4.71875 41.171875 -6.988281 44.609375 -11.53125 C 48.054688 -16.082031 49.78125 -22.710938 49.78125 -31.421875 C 49.78125 -39.265625 48.273438 -45.125 45.265625 -49 C 42.265625 -52.882812 38.382812 -54.828125 33.625 -54.828125 Z M 33.625 -54.828125 "/></g></g></g><g fill="#aabeb4" fill-opacity="1"><g transform="translate(414.257438, 322.340675)"><g><path d="M 17.90625 -71.984375 C 15.5625 -71.984375 13.800781 -72.640625 12.625 -73.953125 C 11.457031 -75.273438 10.875 -76.960938 10.875 -79.015625 C 10.875 -81.359375 11.585938 -83.296875 13.015625 -84.828125 C 14.453125 -86.367188 16.414062 -87.140625 18.90625 -87.140625 C 21.394531 -87.140625 23.222656 -86.476562 24.390625 -85.15625 C 25.566406 -83.84375 26.15625 -82.160156 26.15625 -80.109375 C 26.15625 -77.617188 25.441406 -75.640625 24.015625 -74.171875 C 22.585938 -72.710938 20.585938 -71.984375 18.015625 -71.984375 Z M 13.515625 -52.53125 L 5.171875 -54.5 L 5.171875 -60.328125 L 22.203125 -62.421875 L 22.421875 -62.421875 L 24.9375 -60.4375 L 24.9375 -6.265625 L 33.734375 -5.390625 L 33.734375 0 L 4.609375 0 L 4.609375 -5.390625 L 13.515625 -6.375 Z M 13.515625 -52.53125 "/></g></g></g><g fill="#aabeb4" fill-opacity="1"><g transform="translate(450.850965, 322.340675)"><g><path d="M 4.9375 -30.65625 C 4.9375 -37.25 6.289062 -42.960938 9 -47.796875 C 11.71875 -52.640625 15.289062 -56.320312 19.71875 -58.84375 C 24.15625 -61.375 28.898438 -62.640625 33.953125 -62.640625 C 43.179688 -62.640625 50.125 -59.707031 54.78125 -53.84375 C 59.4375 -47.988281 61.765625 -40.296875 61.765625 -30.765625 C 61.765625 -24.097656 60.40625 -18.347656 57.6875 -13.515625 C 54.976562 -8.679688 51.40625 -5.019531 46.96875 -2.53125 C 42.539062 -0.0390625 37.800781 1.203125 32.75 1.203125 C 23.519531 1.203125 16.578125 -1.722656 11.921875 -7.578125 C 7.265625 -13.441406 4.9375 -21.132812 4.9375 -30.65625 Z M 33.40625 -5.0625 C 38.457031 -5.0625 42.335938 -7.144531 45.046875 -11.3125 C 47.765625 -15.488281 49.125 -21.679688 49.125 -29.890625 C 49.125 -38.023438 47.878906 -44.472656 45.390625 -49.234375 C 42.898438 -53.992188 38.90625 -56.375 33.40625 -56.375 C 28.351562 -56.375 24.453125 -54.285156 21.703125 -50.109375 C 18.953125 -45.929688 17.578125 -39.738281 17.578125 -31.53125 C 17.578125 -23.40625 18.859375 -16.960938 21.421875 -12.203125 C 23.992188 -7.441406 27.988281 -5.0625 33.40625 -5.0625 Z M 33.40625 -5.0625 "/></g></g></g><g fill="#fcfcfc" fill-opacity="1"><g transform="translate(517.754877, 322.340675)"><g><path d="M 31.984375 1.203125 C 23.117188 1.203125 16.359375 -1.6875 11.703125 -7.46875 C 7.046875 -13.257812 4.71875 -20.988281 4.71875 -30.65625 C 4.71875 -37.03125 5.925781 -42.632812 8.34375 -47.46875 C 10.769531 -52.300781 14.160156 -56.035156 18.515625 -58.671875 C 22.878906 -61.316406 27.84375 -62.640625 33.40625 -62.640625 C 40.21875 -62.640625 45.507812 -60.75 49.28125 -56.96875 C 53.0625 -53.195312 55.0625 -47.796875 55.28125 -40.765625 C 55.28125 -36.296875 55.019531 -32.890625 54.5 -30.546875 L 16.703125 -30.546875 C 16.847656 -23.296875 18.53125 -17.453125 21.75 -13.015625 C 24.976562 -8.585938 29.5625 -6.375 35.5 -6.375 C 38.425781 -6.375 41.484375 -6.90625 44.671875 -7.96875 C 47.859375 -9.03125 50.332031 -10.296875 52.09375 -11.765625 L 54.171875 -6.921875 C 52.046875 -4.722656 48.894531 -2.816406 44.71875 -1.203125 C 40.550781 0.398438 36.304688 1.203125 31.984375 1.203125 Z M 43.1875 -36.375 C 43.40625 -37.914062 43.515625 -39.488281 43.515625 -41.09375 C 43.441406 -45.851562 42.429688 -49.609375 40.484375 -52.359375 C 38.546875 -55.109375 35.488281 -56.484375 31.3125 -56.484375 C 27.0625 -56.484375 23.671875 -54.941406 21.140625 -51.859375 C 18.617188 -48.785156 17.175781 -43.625 16.8125 -36.375 Z M 43.1875 -36.375 "/></g></g></g><g fill="#fcfcfc" fill-opacity="1"><g transform="translate(577.535263, 322.340675)"><g><path d="M 28.6875 1.203125 C 24.289062 1.203125 20.257812 0.101562 16.59375 -2.09375 C 12.925781 -4.289062 10.007812 -7.660156 7.84375 -12.203125 C 5.6875 -16.742188 4.609375 -22.347656 4.609375 -29.015625 C 4.609375 -35.242188 5.890625 -40.921875 8.453125 -46.046875 C 11.023438 -51.171875 14.707031 -55.21875 19.5 -58.1875 C 24.300781 -61.15625 29.960938 -62.640625 36.484375 -62.640625 C 40.222656 -62.640625 43.628906 -62.234375 46.703125 -61.421875 L 46.703125 -81.984375 L 35.5 -83.296875 L 35.5 -88.015625 L 55.28125 -90 L 55.609375 -90 L 58.015625 -88.25 L 58.015625 -5.609375 L 64.390625 -5.609375 L 64.390625 -0.546875 C 62.046875 -0.0351562 60.015625 0.363281 58.296875 0.65625 C 56.578125 0.945312 54.765625 1.09375 52.859375 1.09375 C 50.953125 1.09375 49.59375 0.765625 48.78125 0.109375 C 47.976562 -0.546875 47.578125 -1.9375 47.578125 -4.0625 L 47.578125 -7.578125 C 45.523438 -5.085938 42.832031 -3 39.5 -1.3125 C 36.164062 0.363281 32.5625 1.203125 28.6875 1.203125 Z M 33.078125 -6.59375 C 35.929688 -6.59375 38.601562 -7.234375 41.09375 -8.515625 C 43.582031 -9.796875 45.453125 -11.28125 46.703125 -12.96875 L 46.703125 -53.1875 C 46.117188 -54.0625 44.742188 -54.847656 42.578125 -55.546875 C 40.421875 -56.242188 38.132812 -56.59375 35.71875 -56.59375 C 30 -56.59375 25.4375 -54.410156 22.03125 -50.046875 C 18.625 -45.691406 16.921875 -38.972656 16.921875 -29.890625 C 16.921875 -21.972656 18.421875 -16.109375 21.421875 -12.296875 C 24.429688 -8.492188 28.316406 -6.59375 33.078125 -6.59375 Z M 33.078125 -6.59375 "/></g></g></g><g fill="#fcfcfc" fill-opacity="1"><g transform="translate(645.777149, 322.340675)"><g><path d="M 54.953125 0.984375 C 52.898438 0.984375 51.378906 0.582031 50.390625 -0.21875 C 49.398438 -1.019531 48.90625 -2.335938 48.90625 -4.171875 L 48.90625 -7.90625 C 46.488281 -5.488281 43.460938 -3.363281 39.828125 -1.53125 C 36.203125 0.289062 32.5625 1.203125 28.90625 1.203125 C 22.09375 1.203125 17.253906 -0.625 14.390625 -4.28125 C 11.535156 -7.945312 10.109375 -13.992188 10.109375 -22.421875 L 10.109375 -54.28125 L 3.953125 -56.046875 L 3.953125 -60.875 L 19.34375 -62.3125 L 19.453125 -62.3125 L 21.53125 -60.984375 L 21.53125 -23.296875 C 21.53125 -19.046875 21.84375 -15.726562 22.46875 -13.34375 C 23.09375 -10.96875 24.191406 -9.210938 25.765625 -8.078125 C 27.335938 -6.941406 29.628906 -6.375 32.640625 -6.375 C 35.566406 -6.375 38.3125 -6.992188 40.875 -8.234375 C 43.4375 -9.484375 45.671875 -10.953125 47.578125 -12.640625 L 47.578125 -54.28125 L 39.671875 -56.046875 L 39.671875 -60.875 L 56.375 -62.3125 L 56.484375 -62.3125 L 59.015625 -60.984375 L 59.015625 -5.609375 L 65.609375 -5.609375 L 65.5 -0.65625 C 63.445312 -0.144531 61.664062 0.253906 60.15625 0.546875 C 58.65625 0.835938 56.921875 0.984375 54.953125 0.984375 Z M 54.953125 0.984375 "/></g></g></g><g fill="#fcfcfc" fill-opacity="1"><g transform="translate(715.227791, 322.340675)"><g><path d="M 3.625 -30.109375 C 3.625 -36.191406 4.8125 -41.6875 7.1875 -46.59375 C 9.570312 -51.5 13.085938 -55.398438 17.734375 -58.296875 C 22.390625 -61.191406 27.976562 -62.640625 34.5 -62.640625 C 37.65625 -62.640625 40.367188 -62.34375 42.640625 -61.75 C 44.910156 -61.164062 47.617188 -60.363281 50.765625 -59.34375 L 50.328125 -42.421875 L 43.1875 -42.421875 L 40.765625 -53.625 C 40.328125 -55.675781 37.546875 -56.703125 32.421875 -56.703125 C 27.285156 -56.703125 23.234375 -54.628906 20.265625 -50.484375 C 17.304688 -46.347656 15.828125 -40.472656 15.828125 -32.859375 C 15.828125 -24.210938 17.492188 -17.632812 20.828125 -13.125 C 24.160156 -8.625 28.5 -6.375 33.84375 -6.375 C 36.925781 -6.375 39.835938 -6.847656 42.578125 -7.796875 C 45.328125 -8.753906 47.691406 -9.890625 49.671875 -11.203125 L 51.765625 -6.8125 C 49.785156 -4.757812 46.867188 -2.910156 43.015625 -1.265625 C 39.171875 0.378906 35.269531 1.203125 31.3125 1.203125 C 25.3125 1.203125 20.238281 -0.148438 16.09375 -2.859375 C 11.957031 -5.566406 8.84375 -9.28125 6.75 -14 C 4.664062 -18.726562 3.625 -24.097656 3.625 -30.109375 Z M 3.625 -30.109375 "/></g></g></g><g fill="#fcfcfc" fill-opacity="1"><g transform="translate(771.601569, 322.340675)"><g><path d="M 4.9375 -16.484375 C 4.9375 -23.367188 8.378906 -28.441406 15.265625 -31.703125 C 22.160156 -34.960938 30.878906 -36.703125 41.421875 -36.921875 L 41.421875 -40 C 41.421875 -43.445312 41.054688 -46.15625 40.328125 -48.125 C 39.597656 -50.101562 38.332031 -51.550781 36.53125 -52.46875 C 34.738281 -53.382812 32.195312 -53.84375 28.90625 -53.84375 C 25.164062 -53.84375 21.8125 -53.3125 18.84375 -52.25 C 15.875 -51.1875 12.925781 -49.890625 10 -48.359375 L 7.25 -54.0625 C 8.207031 -54.875 9.96875 -55.9375 12.53125 -57.25 C 15.09375 -58.570312 18.054688 -59.742188 21.421875 -60.765625 C 24.796875 -61.796875 28.164062 -62.3125 31.53125 -62.3125 C 36.738281 -62.3125 40.863281 -61.59375 43.90625 -60.15625 C 46.945312 -58.726562 49.125 -56.441406 50.4375 -53.296875 C 51.757812 -50.148438 52.421875 -45.9375 52.421875 -40.65625 L 52.421875 -5.390625 L 58.90625 -5.390625 L 58.90625 -0.546875 C 57.4375 -0.179688 55.582031 0.179688 53.34375 0.546875 C 51.113281 0.910156 49.15625 1.09375 47.46875 1.09375 C 45.414062 1.09375 44.023438 0.78125 43.296875 0.15625 C 42.566406 -0.457031 42.203125 -1.828125 42.203125 -3.953125 L 42.203125 -7.578125 C 40.003906 -5.378906 37.3125 -3.363281 34.125 -1.53125 C 30.9375 0.289062 27.328125 1.203125 23.296875 1.203125 C 18.023438 1.203125 13.644531 -0.3125 10.15625 -3.34375 C 6.675781 -6.382812 4.9375 -10.765625 4.9375 -16.484375 Z M 28.015625 -6.265625 C 29.921875 -6.265625 32.117188 -6.847656 34.609375 -8.015625 C 37.109375 -9.191406 39.378906 -10.585938 41.421875 -12.203125 L 41.421875 -31.09375 C 33.441406 -31.09375 27.414062 -29.863281 23.34375 -27.40625 C 19.28125 -24.957031 17.25 -21.753906 17.25 -17.796875 C 17.25 -13.847656 18.21875 -10.9375 20.15625 -9.0625 C 22.101562 -7.195312 24.722656 -6.265625 28.015625 -6.265625 Z M 28.015625 -6.265625 "/></g></g></g><g fill="#fcfcfc" fill-opacity="1"><g transform="translate(833.250003, 322.340675)"><g><path d="M 5.171875 -5.390625 L 13.40625 -6.046875 L 13.40625 -52.53125 L 5.5 -54.5 L 5.5 -60.4375 L 20.65625 -62.421875 L 20.875 -62.421875 L 23.296875 -60.4375 L 23.296875 -58.46875 L 22.96875 -49.890625 L 23.296875 -49.890625 C 24.023438 -51.140625 25.34375 -52.75 27.25 -54.71875 C 29.15625 -56.695312 31.609375 -58.507812 34.609375 -60.15625 C 37.617188 -61.8125 40.878906 -62.640625 44.390625 -62.640625 C 45.859375 -62.640625 47.066406 -62.457031 48.015625 -62.09375 L 48.015625 -49.78125 C 47.503906 -50.144531 46.679688 -50.488281 45.546875 -50.8125 C 44.410156 -51.144531 43.148438 -51.3125 41.765625 -51.3125 C 35.679688 -51.3125 30.035156 -49.445312 24.828125 -45.71875 L 24.828125 -6.15625 L 38.796875 -5.28125 L 38.796875 0 L 5.171875 0 Z M 5.171875 -5.390625 "/></g></g></g></svg>